<?xml version="1.0" encoding="UTF-8" standalone="no"?>
<svg
   version="1.1"
   viewBox="0 0 10671329 10671329"
   xml:space="preserve"
   id="svg27"
   width="10671329"
   height="10671329"
   xmlns="http://www.w3.org/2000/svg"
   xmlns:svg="http://www.w3.org/2000/svg"><defs
     id="defs31" /><g
     id="layer2"><path
       id="rect267"
       style="display:inline;fill:#3cb371;fill-opacity:1;fill-rule:evenodd;stroke:#000000;stroke-width:0;stroke-dasharray:none;stroke-opacity:1"
       d="M 1633.351,8.3500501 A 1625.0002,1625.0002 0 0 0 8.3499526,1633.3509 1625.0002,1625.0002 0 0 0 1633.351,3258.3499 1625.0002,1625.0002 0 0 0 3258.35,1633.3509 1625.0002,1625.0002 0 0 0 1633.351,8.3500501 Z" /></g><g
     transform="matrix(1.2620992,0,0,-1.2620992,93.504284,3200.1539)"
     id="g25"
     style="fill:#ffffff"><g
       transform="scale(0.1)"
       id="g21"
       style="fill:#ffffff"><path
         d="m 18812,16426 c -66.3,-194.4 -197.9,-343.9 -380.9,-432.3 -146.4,-70.8 -312.7,-98.6 -483.2,-98.6 -288.8,0 -590.1,79.5 -829.7,164.8 -917.8,326.6 -1375.4,858.7 -1194.7,1389.1 79.6,233.9 269.5,433.2 534.4,561.4 376.1,181.6 858.7,198.4 1291.3,44.3 768.6,-273.4 1265.1,-1034.3 1062.8,-1628.7 z m -6573.6,-1545.4 c -282.8,-321.7 -724,-540.6 -1316.3,-814.9 -541.5,-250.7 -1000.6,-375.5 -1387.4,-375.5 -207.78,0 -394.81,36.1 -562.23,108 -352.45,151.2 -609.69,460.2 -764.88,918.4 -289.36,854.4 -387.71,2423.1 579.84,2995.9 550.29,325.7 1666.5,-60.8 1995.7,-187 698.4,-268.1 1499.1,-728.5 1652.3,-1218 189.6,-605.1 127,-1058.5 -197,-1426.9 z m -5643.3,1082.7 c -17.06,-343.4 -36.11,-732.2 -25.02,-1147.5 2.56,-100 5.68,-197.8 8.52,-292.5 27.01,-891.6 44.92,-1480.6 -238.46,-1717.3 -79.31,-66.6 -175.38,-100.1 -286.81,-100.1 -42.92,0 -88.4,5.1 -135.87,15.4 -336.25,71 -698.08,419.8 -944.8,910.4 -272.59,542 -366.96,1160.8 -265.48,1742.1 65.66,376.6 180.78,814.3 341.37,1200 160.88,385.7 367.24,719.4 615.38,887.1 154.06,104.4 313.51,139.9 474.67,105.8 377.19,-79.9 434.9,-457.9 453.65,-582.4 40.37,-264.9 23.02,-615.4 2.85,-1021 z m 14266,-441.4 c -233.6,914.9 -751.8,2172.1 -1896.4,2978.2 l -0.6,-0.3 c -253.3,197 -538.1,354.2 -845.3,461.9 -307.3,108 -636.7,166.6 -979.8,166.6 -109.4,0 -217.4,-6.3 -324,-17.9 -2228.5,-165.7 -3947.8,-1243.9 -6289.4,-170.6 -1949.6,893.4 -2864.5,743.6 -2864.5,743.6 -2412.9,0 -4150.2,-2658.2 -4150.2,-5123.1 0,-1232.5 375.77,-2227 1052.8,-2913.2 175.95,-178.5 372.64,-336.2 588.08,-471.2 613.39,-386.3 1381.7,-593.5 2274.2,-593.5 0,0 34.39,-1.7 106.02,3.1 595.76,15.6 1176.2,162.6 1711.4,413 595.18,202.4 1355,503.1 2306.9,949.9 154.6,72.5 314.7,148.9 479.5,229.7 1999.7,976.1 3766.9,1529.1 5195.4,1839 1.4,-6.4 3.1,-12.9 5.1,-19.3 1.4,-4.5 138.4,-452.5 -4.7,-1086.1 -11.4,-50.9 -2.4,-103.2 25.5,-147.3 27.8,-44.1 71.2,-74.7 122.1,-86.2 14.3,-3.2 28.8,-4.8 43.1,-4.8 91.8,0 170.1,62.6 190.3,152.3 151.7,672 32.7,1162.3 1.8,1270.6 317.6,62.1 616.2,111.9 894.7,151.7 0.6,-4.4 1.2,-8.9 2.1,-13.3 1.7,-8.1 164.6,-827.4 -71.8,-1956.4 -10.7,-51.1 -0.8,-103.2 27.7,-146.9 28.6,-43.6 72.4,-73.6 123.5,-84.3 13.3,-2.7 26.8,-4.1 40.1,-4.1 91.9,0 172.2,65.3 191,155.3 239.2,1142.7 99.1,1973.8 74.9,2100.5 359.2,42.8 678.1,68.3 953.5,82.7 0.7,-17.3 3.6,-34.8 9.2,-52.1 1.4,-4.3 136.3,-434.3 30.9,-1039 -8.9,-51.4 2.7,-103.2 32.7,-145.8 30,-42.7 74.8,-71.1 126.3,-80.1 11.1,-1.9 22.4,-2.9 33.6,-2.9 95,0 175.9,68 192.2,161.8 107.2,615.8 -0.7,1073.7 -35.2,1196.2 459.3,123 753.5,608.1 627.3,1102.3"
         id="path9"
         style="fill:#ffffff" /><path
         d="m 6072.8,17254 c -73.89,15.6 -148.93,-3.4 -229.66,-58 -329.43,-222.8 -667.11,-994.8 -820.87,-1877.4 -202.09,-1160 512.76,-2190.3 961.57,-2285.3 104.6,-22.1 139,6.6 152.07,17.4 164.3,137.3 144.68,781.1 123.93,1462.7 -2.85,94.9 -5.96,193 -8.53,293.6 -11.65,427.5 7.96,822.9 25.3,1171.6 38.37,778.8 48.03,1222.2 -203.81,1275.4"
         id="path11"
         style="fill:#ffffff" /><path
         d="m 17643,17754 c -163.1,58 -334,86.7 -500.2,86.7 -194.7,0 -382.9,-39.5 -545.2,-118 -187.3,-90.7 -319.2,-224.2 -370.9,-376.6 -132.5,-388 406.4,-774.3 999.1,-985.2 457.6,-162.8 836.8,-191 1067,-79.8 107.2,52 178.2,133 217.4,248.1 131.6,385.7 -211.4,991.4 -867.2,1224.8"
         id="path13"
         style="fill:#ffffff" /><path
         d="m 10669,17227 c -497.4,190.7 -967.81,292.5 -1309.2,292.5 -175.09,0 -316.08,-26.8 -409.31,-81.9 -762.32,-451.4 -716.28,-1803.2 -440.28,-2618.7 126.77,-374 319.2,-612 588.37,-727.4 385.71,-165.7 953.9,-76.7 1689.5,263.8 1104.3,511.1 1665.7,826 1342.8,1856.4 -95.3,304.1 -696.4,721.7 -1461.9,1015.3"
         id="path15"
         style="fill:#ffffff" /><path
         d="m 9954.1,8841.9 c -394.8,191.5 -904.16,299.8 -1325.7,299.8 -194.71,0 -370.65,-23 -507.66,-71.9 -128.47,-45.8 -212.31,-109.1 -249.27,-189 -26.71,-57.4 -39.51,-120.5 -39.51,-187.6 0,-397.9 451.09,-931.7 1088.6,-1241.3 517.59,-251.2 1243,-321.5 1687.2,-163.4 110.3,39.2 254.1,112 311.6,235.3 183.6,395.1 -231.4,961.6 -965.33,1318.1"
         id="path17"
         style="fill:#ffffff" /><path
         d="m 18331,7001 c -17.4,-73.6 -83,-123.3 -155.5,-123.3 -12,0 -24.5,1.4 -36.7,4.2 -1792.4,421.3 -3377.6,1035.8 -4711,1826.8 -75.9,44.9 -100.9,143 -55.9,218.9 44.9,75.9 142.9,100.9 218.8,55.7 1305.5,-774.3 2860.3,-1376.6 4621.2,-1790.4 85.8,-20.2 139.2,-106 119.1,-191.9 z m -5390.6,2202.3 c -31,-44.6 -80.7,-68.8 -131.4,-68.8 -31.2,0 -63.1,9.1 -90.6,28.4 -188.5,130.5 -371.8,265.8 -544.6,402.2 -69.1,54.6 -81,154.9 -26.5,224.3 54.9,69.1 155.2,81 224.6,26.4 167.4,-132.4 345,-263.7 528.1,-390.2 72.5,-50 90.7,-149.5 40.4,-222.3 z M 11208.5,7317.9 c -82.1,-177 -253,-315.7 -493.7,-401.6 -193.9,-68.8 -427.2,-102.3 -674.5,-102.3 -421.54,0 -883.72,96.9 -1259.5,279.4 -808.38,392.2 -1496.5,1211.7 -1199.2,1851 74.47,160.3 219.72,279.7 431.75,355.2 571.33,203.3 1506.2,36.7 2079.8,-241.8 413.5,-200.7 756,-473 964.1,-766.9 235.1,-331.7 288.8,-677.3 151.2,-973 z m 7702,410.2 c -70.8,15.2 -140.8,30.7 -210.4,46.4 118.2,201.9 487.9,893.9 567,1771.7 9.6,107.2 -69.8,202.3 -177.1,212 -107.7,9.7 -202.3,-70.1 -212,-177 -82.9,-921.5 -538,-1648 -542.5,-1655.1 -12.1,-18.8 -20.3,-38.9 -25.2,-59.5 -420.8,103.7 -818,215.8 -1192.7,334.5 102.1,169.1 258.6,485.5 337.3,936.4 18.5,106 -52.8,207.4 -158.8,225.9 -51.3,9 -103.1,-2.6 -145.8,-32.6 -42.7,-30 -71.2,-74.8 -80.1,-126.2 -77.1,-441.4 -241.4,-732 -308.5,-836.5 -8.8,-13.8 -15.5,-28.3 -20.5,-43.2 -3212.6,1098 -4656.2,2655.3 -5063.7,3168 -78.1,98.2 -213.4,129.9 -327.4,77.3 -858.6,-395.8 -1553.3,-668.5 -2106,-856.5 -535.23,-250.4 -1115.6,-397.3 -1711.4,-412.9 -71.63,-4.9 -106.02,-3.2 -106.02,-3.2 -735.79,0 -1387.2,140.8 -1936.9,406.7 -162.69,78.7 -351.34,-40.8 -352.79,-221.5 -17.18,-2135.5 985.46,-4189.9 3600.3,-4785.9 2781,-633.8 3524.6,1409.9 6305.9,120.3 2491.3,-1155.2 3545,-863.3 4318.1,1040.3 149.8,368.9 -68.5,788.5 -450.8,870.6"
         id="path19"
         style="fill:#ffffff" /></g></g></svg>
